HIERARCHY
ROOT hip
{
	OFFSET 0.000000 0.000000 0.000000 
	CHANNELS 6 Xposition Yposition Zposition Xrotation Zrotation Yrotation
	JOINT abdomen
	{
		OFFSET 0.000000 3.402643 0.000000 
		CHANNELS 3 Xrotation Zrotation Yrotation
		JOINT chest
		{
			OFFSET 0.000000 8.438565 -0.680529 
			CHANNELS 3 Xrotation Zrotation Yrotation
			JOINT neck
			{
				OFFSET 0.000000 10.207942 -0.272212 
				CHANNELS 3 Xrotation Zrotation Yrotation
				JOINT head
				{
					OFFSET 0.000000 3.130431 0.000000 
					CHANNELS 3 Xrotation Zrotation Yrotation
					End Site
					{
						OFFSET 0.000000 3.130435 0.000000 
					}
				}
			}
			JOINT lCollar
			{
				OFFSET 3.470700 6.669187 -0.816635 
				CHANNELS 3 Yrotation Zrotation Xrotation
				JOINT lShldr
				{
					OFFSET 3.198488 0.000000 0.000000 
					CHANNELS 3 Zrotation Yrotation Xrotation
					JOINT lForeArm
					{
						OFFSET 10.139888 0.000000 0.000000 
						CHANNELS 3 Yrotation Zrotation Xrotation
						JOINT lHand
						{
							OFFSET 8.370511 0.000000 0.000000 
							CHANNELS 3 Zrotation Yrotation Xrotation
							End Site
							{
								OFFSET 4.083176 0.000000 0.000000 
							}
						}
					}
				}
			}
			JOINT rCollar
			{
				OFFSET -3.470700 6.669187 -0.816635 
				CHANNELS 3 Yrotation Zrotation Xrotation
				JOINT rShldr
				{
					OFFSET -3.198488 0.000000 0.000000 
					CHANNELS 3 Zrotation Yrotation Xrotation
					JOINT rForeArm
					{
						OFFSET -10.139888 0.000000 0.000000 
						CHANNELS 3 Yrotation Zrotation Xrotation
						JOINT rHand
						{
							OFFSET -8.370511 0.000000 0.000000 
							CHANNELS 3 Zrotation Yrotation Xrotation
							End Site
							{
								OFFSET -4.083176 0.000000 0.000000 
							}
						}
					}
				}
			}
		}
	}
	JOINT lThigh
	{
		OFFSET 5.308129 -1.633274 1.361059 
		CHANNELS 3 Xrotation Zrotation Yrotation
		JOINT lShin
		{
			OFFSET -2.041588 -20.007561 0.000000 
			CHANNELS 3 Xrotation Zrotation Yrotation
			JOINT lFoot
			{
				OFFSET 0.000000 -19.190928 -1.224953 
				CHANNELS 3 Xrotation Yrotation Zrotation
				End Site
				{
					OFFSET 0.000000 -2.449906 4.627600 
				}
			}
		}
	}
	JOINT rThigh
	{
		OFFSET -5.308129 -1.633274 1.361059 
		CHANNELS 3 Xrotation Zrotation Yrotation
		JOINT rShin
		{
			OFFSET 2.041588 -20.007561 0.000000 
			CHANNELS 3 Xrotation Zrotation Yrotation
			JOINT rFoot
			{
				OFFSET 0.000000 -19.190928 -1.224953 
				CHANNELS 3 Xrotation Yrotation Zrotation
				End Site
				{
					OFFSET 0.000000 -2.449906 4.627600 
				}
			}
		}
	}
}
MOTION
Frames: 15
Frame Time: 0.033333
-0.322639 48.967777 -3.085409 0.058596 0.468750 -0.643972 0.000000 0.000000 0.000000 -22.305740 0.542096 -4.333706 1.113562 -0.560772 -0.424968 8.847660 -0.273434 0.047616 -3.519355 9.157742 6.311733 -4.954044 19.904858 -33.648045 -19.718683 9.082512 25.257570 0.596198 7.330801 -8.227715 3.090466 -14.082293 8.028685 4.623266 -10.936342 -27.570850 12.150493 -13.849509 42.107220 7.287108 -3.246127 -7.716724 -1.024726 4.126688 3.735467 9.722754 -2.911215 -2.349010 -5.940516 0.296116 -1.947332 1.023472 -9.389221 -11.328498 6.412361 2.242522 -3.115358 -4.735919 -0.078890 0.029964 
-0.320559 48.951214 -3.172610 0.292973 0.312496 -0.769833 0.000000 0.000000 0.000000 -22.512257 0.829985 -4.289260 1.084243 -0.614977 -0.396864 9.072271 -0.283193 0.056229 -3.519355 9.157742 6.311733 -5.376511 19.670053 -34.926407 -20.035231 9.557719 27.031334 0.826594 7.589614 -8.256151 3.090466 -14.082293 8.028685 4.576326 -10.911597 -27.514500 12.137483 -13.846374 41.935719 7.213814 -3.148103 -7.705611 -1.414250 4.369129 3.741641 10.252919 -2.910194 -4.906998 -6.922467 0.156978 -0.581436 0.574325 -9.250984 -11.241397 6.530934 2.262922 -3.146734 -4.618644 -0.087251 0.037079 
-0.311238 48.949326 -3.200336 0.312506 0.351557 -0.613257 0.000000 0.000000 0.000000 -22.541042 0.739613 -4.408504 1.006123 -0.748767 -0.379217 9.316415 -0.273415 0.016083 -3.519355 9.157742 6.311733 -5.341685 19.647804 -34.887104 -20.050621 9.610548 27.529867 3.226206 8.039834 -8.374066 3.090466 -14.082293 8.028685 4.533526 -10.906324 -27.557426 12.200989 -13.888942 42.573765 7.828490 -3.099481 -7.649404 -1.423628 4.269646 3.766157 9.835448 -2.988415 -3.570317 -6.715927 0.177792 -0.774963 0.556172 -9.324777 -11.295785 6.539151 2.281485 -3.282051 -4.618872 -0.076826 0.062734 
-0.322120 48.952633 -3.232036 0.429695 0.332022 -0.583391 0.000000 0.000000 0.000000 -22.716600 0.693627 -4.499340 1.172082 -0.874731 -0.249062 9.082033 -0.156244 0.067028 -3.519355 9.157742 6.311733 -5.271871 19.686754 -34.876621 -20.116699 9.662084 27.179514 1.795043 7.664733 -8.301615 3.090466 -14.082293 8.028685 4.514457 -10.933919 -27.836180 12.406668 -14.121074 45.079159 8.615350 -2.532856 -7.511160 -1.570656 4.330241 3.744609 9.943397 -2.969269 -4.209480 -6.726649 0.195286 -0.692361 0.409217 -9.285135 -11.251071 6.540167 2.282252 -3.321038 -4.540825 -0.085196 0.122835 
-0.323824 48.945541 -3.242303 0.410162 0.312492 -0.691069 0.000000 0.000000 0.000000 -22.697607 0.792829 -4.384297 1.250140 -0.831805 -0.095282 8.886720 -0.136716 0.233676 -3.519355 9.157742 6.311733 -5.268343 19.704660 -34.855850 -20.135244 9.704509 26.957914 1.882023 7.538728 -8.297355 3.090466 -14.082293 8.028685 4.451696 -10.970634 -27.803616 12.425273 -14.124207 44.956795 8.355829 -2.718050 -7.560473 -1.491611 4.328056 3.761547 9.731839 -2.997374 -3.866293 -6.697421 0.154787 -0.635698 0.408677 -9.291181 -11.300822 6.531893 2.370548 -3.113142 -4.628404 -0.087733 0.036867 
-0.325716 48.952160 -3.242966 0.380865 0.312493 -0.798651 0.000000 0.000000 0.000000 -22.727343 0.864718 -4.278161 1.406334 -0.618969 0.023180 8.603516 -0.253905 0.449219 -3.519355 9.157742 6.311733 -5.307699 19.743927 -34.861164 -20.151468 9.737347 27.117189 1.838624 7.355234 -8.285543 3.090466 -14.082293 8.028685 4.364993 -11.010458 -27.601833 12.385821 -14.047320 44.713108 7.837887 -2.752830 -7.608066 -1.581994 4.305589 3.734016 9.952593 -2.939765 -3.525765 -6.695997 0.205118 -0.848157 0.408726 -9.300924 -11.301531 6.524062 2.376848 -2.947123 -4.472340 -0.098141 0.117364 
-0.328886 48.955956 -3.241357 0.429692 0.253899 -0.925787 0.000000 0.000000 0.000000 -22.825798 0.981111 -4.182385 1.406383 -0.689302 0.136880 8.574219 -0.097655 0.498080 -3.519355 9.157742 6.311733 -5.376569 19.832302 -34.871342 -20.126856 9.732865 27.366636 1.790958 7.131707 -8.274088 3.090466 -14.082293 8.028685 4.346977 -11.028223 -27.682556 12.399700 -14.070737 44.855339 7.626477 -2.654873 -7.606517 -1.571227 4.361445 3.746276 9.874454 -2.929811 -3.510389 -6.695982 0.180747 -0.816340 0.350043 -9.258420 -11.317158 6.524298 2.406240 -2.975216 -4.472425 -0.095066 0.139872 
-0.329170 48.954529 -3.233266 0.449221 0.195306 -1.072654 0.000000 0.000000 0.000000 -22.875532 1.097728 -4.105601 1.347757 -0.539954 0.160390 8.779299 -0.273435 0.614349 -3.519355 9.157742 6.311733 -5.323269 19.849987 -34.842522 -20.154604 9.726591 26.406687 2.040974 7.393096 -8.291401 3.090466 -14.082293 8.028685 4.292921 -11.024977 -27.643833 12.405503 -14.076766 45.230789 8.068526 -2.709904 -7.579412 -1.560268 4.436257 3.779149 9.988184 -2.901827 -3.700611 -6.774644 0.166248 -0.748143 0.310946 -9.211111 -11.273700 6.515841 2.416604 -2.838765 -4.491855 -0.093747 0.098016 
-0.337592 48.956425 -3.207623 0.390628 0.214839 -1.033655 0.000000 0.000000 0.000000 -22.845943 1.061966 -4.128941 1.357564 -0.652724 0.186466 8.750001 -0.185545 0.575666 -3.519355 9.157742 6.311733 -5.321903 19.927961 -34.709587 -20.143791 9.707523 26.439396 1.776340 7.376192 -8.288246 3.090466 -14.082293 8.028685 4.334774 -11.013826 -27.733223 12.397574 -14.065261 44.737106 8.132364 -3.085525 -7.630701 -1.513124 4.411797 3.786388 9.982037 -2.920295 -3.409328 -6.813539 0.205218 -0.816176 0.408879 -9.212507 -11.304881 6.511234 2.438433 -2.955496 -4.589320 -0.098722 0.064031 
-0.355384 48.960209 -3.115925 0.039063 0.283203 -0.849368 0.000000 0.000000 0.000000 -22.581255 0.928760 -4.243598 1.289235 -0.790888 0.174526 8.818360 -0.029296 0.488166 -3.519355 9.157742 6.311733 -5.393885 19.939255 -34.738819 -20.161840 9.718734 26.317825 1.655857 7.389086 -8.281361 3.090466 -14.082293 8.028685 4.356766 -10.978374 -27.476486 12.121635 -13.792766 41.819683 7.096925 -3.776535 -7.797742 -0.947370 4.364684 3.814487 9.753963 -2.930509 -3.775450 -6.725261 0.185561 -0.824900 0.935953 -9.251322 -11.365476 6.478739 2.397811 -3.085747 -4.784584 -0.083154 0.006885 
-0.340289 48.960678 -3.084272 -0.019532 0.429687 -0.810693 0.000000 0.000000 0.000000 -22.619635 0.820324 -4.257762 1.445622 -0.984160 0.244331 8.710938 0.097657 0.449402 -3.519355 9.157742 6.311733 -5.491036 19.982756 -34.680103 -20.152878 9.707761 26.401787 1.554107 7.128477 -8.260293 3.090466 -14.082293 8.028685 4.225121 -10.969172 -27.370848 12.080743 -13.774444 41.857624 6.955986 -3.757262 -7.806797 -0.731939 4.165654 3.688554 9.497239 -2.862214 -3.813466 -6.686701 0.175788 -0.765145 1.062431 -9.435845 -11.480794 6.476061 2.416144 -2.899669 -4.716318 -0.090261 0.046340 
-0.344689 48.955006 -3.081338 0.087893 0.429687 -0.790283 0.000000 0.000000 0.000000 -22.756258 0.801495 -4.271697 1.250227 -0.923204 0.201048 8.867188 -0.019530 0.449125 -3.519355 9.157742 6.311733 -5.466459 20.019598 -34.521915 -20.093548 9.600235 25.931587 0.499620 7.524461 -8.232930 3.090466 -14.082293 8.028685 4.222438 -10.957520 -27.352566 12.018965 -13.782692 41.725163 6.848165 -3.693778 -7.805628 -0.887482 4.171331 3.654707 9.581807 -2.851874 -3.808504 -6.676322 0.192241 -0.843216 0.935641 -9.386287 -11.395748 6.482293 2.350866 -2.970464 -4.696860 -0.091460 0.067060 
-0.353347 48.957363 -3.063784 0.068361 0.419922 -0.712318 0.000000 0.000000 0.000000 -22.765818 0.765418 -4.325080 1.142732 -0.824606 0.147066 8.935551 -0.234370 0.467352 -3.519355 9.157742 6.311733 -5.508148 20.020729 -34.543247 -20.077772 9.596601 26.123964 0.254359 7.441047 -8.217594 3.090466 -14.082293 8.028685 4.270115 -10.921142 -27.485184 12.012630 -13.854588 41.635189 6.882556 -3.521131 -7.774829 -0.848811 4.232141 3.647117 9.761321 -2.813676 -4.587168 -6.686034 0.183924 -0.836269 0.994077 -9.347483 -11.374006 6.480808 2.311111 -3.108665 -4.745634 -0.092152 0.056125 
-0.367069 48.961155 -3.036484 -0.058596 0.468750 -0.645011 0.000000 0.000000 0.000000 -22.628441 0.639989 -4.358547 1.054908 -0.855920 0.263334 8.955081 -0.224604 0.574755 -3.519355 9.157742 6.311733 -5.495370 20.019258 -34.520973 -20.076521 9.587708 26.102005 0.626653 7.325171 -8.227072 3.090466 -14.082293 8.028685 4.277321 -10.889936 -27.466642 11.947765 -13.813028 41.536411 7.048576 -3.783461 -7.797492 -0.605466 4.186721 3.754430 9.322140 -2.959791 -3.594049 -6.618059 0.167810 -0.779315 1.189801 -9.351837 -11.357921 6.460797 2.252227 -3.112140 -4.794491 -0.087314 0.047551 
-0.391530 48.960209 -3.033267 0.029297 0.371094 -0.536856 0.000000 0.000000 0.000000 -22.706657 0.657642 -4.474380 1.006150 -0.954574 0.320131 9.052737 -0.185540 0.574686 -3.519355 9.157742 6.311733 -5.554761 20.019379 -34.528717 -20.082569 9.600738 26.323235 1.941420 7.468065 -8.294869 3.090466 -14.082293 8.028685 4.352967 -10.839616 -27.660049 12.007391 -13.866049 41.879105 6.862132 -3.859498 -7.826378 -0.790240 4.340869 3.838284 9.555248 -2.958004 -4.008493 -6.765068 0.176558 -0.743512 1.101040 -9.180923 -11.194965 6.461078 2.164402 -3.427864 -4.833682 -0.089956 0.088853 
